<svg xmlns="http://www.w3.org/2000/svg" xmlns:xlink="http://www.w3.org/1999/xlink" width="160" zoomAndPan="magnify" viewBox="0 0 120 41.25" height="55" preserveAspectRatio="xMidYMid meet" version="1.0"><defs><g/></defs><g fill="#542e23" fill-opacity="1"><g transform="translate(8.141636, 22.407375)"><g><path d="M 8.421875 -8.921875 C 9.753906 -8.828125 10.828125 -8.382812 11.640625 -7.59375 C 12.460938 -6.8125 12.875 -5.835938 12.875 -4.671875 C 12.875 -3.773438 12.65625 -2.960938 12.21875 -2.234375 C 11.78125 -1.503906 11.175781 -0.929688 10.40625 -0.515625 C 9.632812 -0.109375 8.78125 0.09375 7.84375 0.09375 C 7.28125 0.09375 6.671875 0.0703125 6.015625 0.03125 C 5.773438 0.0078125 5.492188 -0.00390625 5.171875 -0.015625 C 4.847656 -0.0351562 4.492188 -0.046875 4.109375 -0.046875 L 2.390625 -0.03125 C 2.078125 -0.0078125 1.644531 0 1.09375 0 C 1.0625 0 1.046875 -0.046875 1.046875 -0.140625 C 1.046875 -0.242188 1.0625 -0.296875 1.09375 -0.296875 C 1.726562 -0.296875 2.195312 -0.34375 2.5 -0.4375 C 2.8125 -0.53125 3.023438 -0.695312 3.140625 -0.9375 C 3.265625 -1.175781 3.328125 -1.546875 3.328125 -2.046875 L 3.328125 -13.796875 C 3.328125 -14.304688 3.269531 -14.675781 3.15625 -14.90625 C 3.050781 -15.144531 2.84375 -15.3125 2.53125 -15.40625 C 2.226562 -15.5 1.765625 -15.546875 1.140625 -15.546875 C 1.085938 -15.546875 1.0625 -15.59375 1.0625 -15.6875 C 1.0625 -15.789062 1.085938 -15.84375 1.140625 -15.84375 L 2.390625 -15.828125 C 3.097656 -15.796875 3.671875 -15.78125 4.109375 -15.78125 C 4.410156 -15.78125 4.691406 -15.785156 4.953125 -15.796875 C 5.210938 -15.816406 5.4375 -15.832031 5.625 -15.84375 C 6.15625 -15.894531 6.644531 -15.921875 7.09375 -15.921875 C 8.519531 -15.921875 9.585938 -15.613281 10.296875 -15 C 11.003906 -14.382812 11.359375 -13.578125 11.359375 -12.578125 C 11.359375 -11.765625 11.09375 -11.039062 10.5625 -10.40625 C 10.039062 -9.769531 9.328125 -9.273438 8.421875 -8.921875 Z M 6.546875 -15.546875 C 6.109375 -15.546875 5.78125 -15.507812 5.5625 -15.4375 C 5.351562 -15.375 5.195312 -15.210938 5.09375 -14.953125 C 4.988281 -14.703125 4.9375 -14.300781 4.9375 -13.75 L 4.9375 -8.921875 L 6.09375 -8.90625 C 7.320312 -8.90625 8.234375 -9.21875 8.828125 -9.84375 C 9.421875 -10.476562 9.71875 -11.320312 9.71875 -12.375 C 9.71875 -13.320312 9.457031 -14.085938 8.9375 -14.671875 C 8.425781 -15.253906 7.628906 -15.546875 6.546875 -15.546875 Z M 7.453125 -0.359375 C 8.691406 -0.359375 9.609375 -0.671875 10.203125 -1.296875 C 10.804688 -1.929688 11.109375 -2.84375 11.109375 -4.03125 C 11.109375 -5.3125 10.726562 -6.347656 9.96875 -7.140625 C 9.21875 -7.941406 8.1875 -8.351562 6.875 -8.375 C 6.332031 -8.382812 5.6875 -8.363281 4.9375 -8.3125 L 4.9375 -2.046875 C 4.9375 -1.609375 5 -1.269531 5.125 -1.03125 C 5.257812 -0.800781 5.507812 -0.628906 5.875 -0.515625 C 6.238281 -0.410156 6.765625 -0.359375 7.453125 -0.359375 Z M 7.453125 -0.359375 "/></g></g></g><g fill="#542e23" fill-opacity="1"><g transform="translate(24.417931, 22.407375)"><g><path d="M 14.09375 -0.296875 C 14.164062 -0.296875 14.203125 -0.242188 14.203125 -0.140625 C 14.203125 -0.046875 14.164062 0 14.09375 0 C 13.789062 0 13.300781 -0.015625 12.625 -0.046875 C 11.945312 -0.078125 11.457031 -0.09375 11.15625 -0.09375 C 10.882812 -0.09375 10.53125 -0.078125 10.09375 -0.046875 C 9.65625 -0.015625 9.316406 0 9.078125 0 C 9.015625 0 8.984375 -0.046875 8.984375 -0.140625 C 8.984375 -0.242188 9.015625 -0.296875 9.078125 -0.296875 C 9.515625 -0.296875 9.835938 -0.351562 10.046875 -0.46875 C 10.265625 -0.582031 10.375 -0.78125 10.375 -1.0625 C 10.375 -1.320312 10.269531 -1.675781 10.0625 -2.125 L 8.34375 -5.828125 L 4.796875 -5.828125 L 3.703125 -3.125 C 3.429688 -2.476562 3.296875 -1.941406 3.296875 -1.515625 C 3.296875 -1.078125 3.445312 -0.765625 3.75 -0.578125 C 4.050781 -0.390625 4.515625 -0.296875 5.140625 -0.296875 C 5.234375 -0.296875 5.28125 -0.242188 5.28125 -0.140625 C 5.28125 -0.046875 5.234375 0 5.140625 0 C 4.890625 0 4.546875 -0.015625 4.109375 -0.046875 C 3.628906 -0.078125 3.191406 -0.09375 2.796875 -0.09375 C 2.367188 -0.09375 1.867188 -0.078125 1.296875 -0.046875 C 0.785156 -0.015625 0.378906 0 0.078125 0 C -0.00390625 0 -0.046875 -0.046875 -0.046875 -0.140625 C -0.046875 -0.242188 -0.00390625 -0.296875 0.078125 -0.296875 C 0.597656 -0.296875 1.007812 -0.367188 1.3125 -0.515625 C 1.625 -0.660156 1.910156 -0.941406 2.171875 -1.359375 C 2.429688 -1.785156 2.75 -2.445312 3.125 -3.34375 L 6.765625 -12.25 C 6.804688 -12.3125 6.859375 -12.34375 6.921875 -12.34375 C 6.992188 -12.34375 7.035156 -12.3125 7.046875 -12.25 L 11.125 -3.46875 C 11.570312 -2.519531 11.925781 -1.832031 12.1875 -1.40625 C 12.445312 -0.988281 12.71875 -0.695312 13 -0.53125 C 13.28125 -0.375 13.644531 -0.296875 14.09375 -0.296875 Z M 4.96875 -6.296875 L 8.140625 -6.296875 L 6.4375 -9.9375 Z M 4.96875 -6.296875 "/></g></g></g><g fill="#542e23" fill-opacity="1"><g transform="translate(40.719576, 22.407375)"><g><path d="M 4.3125 -2.15625 C 4.3125 -1.664062 4.359375 -1.300781 4.453125 -1.0625 C 4.546875 -0.820312 4.722656 -0.648438 4.984375 -0.546875 C 5.242188 -0.453125 5.632812 -0.40625 6.15625 -0.40625 L 7.84375 -0.40625 C 8.738281 -0.40625 9.453125 -0.679688 9.984375 -1.234375 C 10.515625 -1.796875 10.875 -2.566406 11.0625 -3.546875 C 11.0625 -3.578125 11.09375 -3.59375 11.15625 -3.59375 C 11.207031 -3.59375 11.253906 -3.582031 11.296875 -3.5625 C 11.335938 -3.550781 11.359375 -3.53125 11.359375 -3.5 C 11.242188 -2.71875 11.1875 -1.675781 11.1875 -0.375 C 11.1875 -0.238281 11.15625 -0.140625 11.09375 -0.078125 C 11.03125 -0.0234375 10.929688 0 10.796875 0 L 0.890625 0 C 0.859375 0 0.84375 -0.046875 0.84375 -0.140625 C 0.84375 -0.242188 0.859375 -0.296875 0.890625 -0.296875 C 1.441406 -0.296875 1.84375 -0.335938 2.09375 -0.421875 C 2.351562 -0.515625 2.523438 -0.679688 2.609375 -0.921875 C 2.691406 -1.171875 2.734375 -1.546875 2.734375 -2.046875 L 2.734375 -9.8125 C 2.734375 -10.320312 2.6875 -10.691406 2.59375 -10.921875 C 2.5 -11.160156 2.328125 -11.328125 2.078125 -11.421875 C 1.828125 -11.515625 1.429688 -11.5625 0.890625 -11.5625 C 0.859375 -11.5625 0.84375 -11.613281 0.84375 -11.71875 C 0.84375 -11.820312 0.859375 -11.875 0.890625 -11.875 L 2.03125 -11.84375 C 2.675781 -11.8125 3.175781 -11.796875 3.53125 -11.796875 C 3.945312 -11.796875 4.476562 -11.8125 5.125 -11.84375 L 6.1875 -11.875 C 6.238281 -11.875 6.265625 -11.820312 6.265625 -11.71875 C 6.265625 -11.613281 6.238281 -11.5625 6.1875 -11.5625 C 5.625 -11.5625 5.21875 -11.515625 4.96875 -11.421875 C 4.71875 -11.328125 4.546875 -11.15625 4.453125 -10.90625 C 4.359375 -10.664062 4.3125 -10.289062 4.3125 -9.78125 Z M 4.3125 -2.15625 "/></g></g></g><g fill="#542e23" fill-opacity="1"><g transform="translate(54.587568, 22.407375)"><g><path d="M 9.984375 -10.09375 C 10.003906 -9.769531 10.015625 -9.363281 10.015625 -8.875 C 10.015625 -8.820312 9.960938 -8.796875 9.859375 -8.796875 C 9.765625 -8.796875 9.71875 -8.820312 9.71875 -8.875 C 9.625 -9.6875 9.34375 -10.332031 8.875 -10.8125 C 8.40625 -11.289062 7.789062 -11.53125 7.03125 -11.53125 L 6.3125 -11.53125 C 5.71875 -11.53125 5.285156 -11.484375 5.015625 -11.390625 C 4.742188 -11.304688 4.554688 -11.144531 4.453125 -10.90625 C 4.359375 -10.664062 4.3125 -10.289062 4.3125 -9.78125 L 4.3125 -6.03125 C 5.9375 -6.050781 7.046875 -6.09375 7.640625 -6.15625 C 8.242188 -6.226562 8.585938 -6.265625 8.671875 -6.265625 C 8.753906 -6.265625 8.796875 -6.085938 8.796875 -5.734375 C 8.796875 -5.335938 8.753906 -5.140625 8.671875 -5.140625 C 8.609375 -5.140625 8.273438 -5.1875 7.671875 -5.28125 C 7.066406 -5.375 5.945312 -5.441406 4.3125 -5.484375 L 4.3125 -2.15625 C 4.3125 -1.613281 4.367188 -1.21875 4.484375 -0.96875 C 4.609375 -0.726562 4.84375 -0.554688 5.1875 -0.453125 C 5.53125 -0.347656 6.078125 -0.296875 6.828125 -0.296875 C 6.867188 -0.296875 6.890625 -0.242188 6.890625 -0.140625 C 6.890625 -0.046875 6.867188 0 6.828125 0 C 6.210938 0 5.742188 -0.0078125 5.421875 -0.03125 L 3.53125 -0.046875 L 2.15625 -0.03125 C 1.863281 -0.0078125 1.441406 0 0.890625 0 C 0.859375 0 0.84375 -0.046875 0.84375 -0.140625 C 0.84375 -0.242188 0.859375 -0.296875 0.890625 -0.296875 C 1.441406 -0.296875 1.84375 -0.335938 2.09375 -0.421875 C 2.351562 -0.515625 2.53125 -0.679688 2.625 -0.921875 C 2.71875 -1.171875 2.765625 -1.546875 2.765625 -2.046875 L 2.765625 -9.8125 C 2.765625 -10.320312 2.71875 -10.691406 2.625 -10.921875 C 2.53125 -11.160156 2.351562 -11.328125 2.09375 -11.421875 C 1.84375 -11.515625 1.441406 -11.5625 0.890625 -11.5625 C 0.859375 -11.5625 0.84375 -11.613281 0.84375 -11.71875 C 0.84375 -11.820312 0.859375 -11.875 0.890625 -11.875 L 9.71875 -11.875 C 9.882812 -11.875 9.96875 -11.804688 9.96875 -11.671875 Z M 9.984375 -10.09375 "/></g></g></g><g fill="#542e23" fill-opacity="1"><g transform="translate(67.542933, 22.407375)"><g><path d="M 6.96875 0.296875 C 5.789062 0.296875 4.738281 0.0195312 3.8125 -0.53125 C 2.894531 -1.09375 2.179688 -1.84375 1.671875 -2.78125 C 1.160156 -3.726562 0.90625 -4.753906 0.90625 -5.859375 C 0.90625 -7.179688 1.25 -8.316406 1.9375 -9.265625 C 2.625 -10.222656 3.492188 -10.945312 4.546875 -11.4375 C 5.609375 -11.925781 6.6875 -12.171875 7.78125 -12.171875 C 8.96875 -12.171875 10.015625 -11.878906 10.921875 -11.296875 C 11.828125 -10.710938 12.519531 -9.957031 13 -9.03125 C 13.476562 -8.101562 13.71875 -7.128906 13.71875 -6.109375 C 13.71875 -4.972656 13.410156 -3.910156 12.796875 -2.921875 C 12.191406 -1.941406 11.375 -1.160156 10.34375 -0.578125 C 9.3125 0.00390625 8.1875 0.296875 6.96875 0.296875 Z M 7.640625 -0.234375 C 8.953125 -0.234375 10 -0.695312 10.78125 -1.625 C 11.570312 -2.550781 11.96875 -3.835938 11.96875 -5.484375 C 11.96875 -6.609375 11.769531 -7.632812 11.375 -8.5625 C 10.976562 -9.5 10.398438 -10.242188 9.640625 -10.796875 C 8.878906 -11.359375 7.972656 -11.640625 6.921875 -11.640625 C 5.566406 -11.640625 4.515625 -11.1875 3.765625 -10.28125 C 3.023438 -9.375 2.65625 -8.109375 2.65625 -6.484375 C 2.65625 -5.328125 2.851562 -4.273438 3.25 -3.328125 C 3.65625 -2.378906 4.234375 -1.625 4.984375 -1.0625 C 5.734375 -0.507812 6.617188 -0.234375 7.640625 -0.234375 Z M 7.640625 -0.234375 "/></g></g></g><g fill="#542e23" fill-opacity="1"><g transform="translate(84.30089, 22.407375)"><g><path d="M 4.3125 -2.15625 C 4.3125 -1.664062 4.359375 -1.300781 4.453125 -1.0625 C 4.546875 -0.820312 4.722656 -0.648438 4.984375 -0.546875 C 5.242188 -0.453125 5.632812 -0.40625 6.15625 -0.40625 L 7.84375 -0.40625 C 8.738281 -0.40625 9.453125 -0.679688 9.984375 -1.234375 C 10.515625 -1.796875 10.875 -2.566406 11.0625 -3.546875 C 11.0625 -3.578125 11.09375 -3.59375 11.15625 -3.59375 C 11.207031 -3.59375 11.253906 -3.582031 11.296875 -3.5625 C 11.335938 -3.550781 11.359375 -3.53125 11.359375 -3.5 C 11.242188 -2.71875 11.1875 -1.675781 11.1875 -0.375 C 11.1875 -0.238281 11.15625 -0.140625 11.09375 -0.078125 C 11.03125 -0.0234375 10.929688 0 10.796875 0 L 0.890625 0 C 0.859375 0 0.84375 -0.046875 0.84375 -0.140625 C 0.84375 -0.242188 0.859375 -0.296875 0.890625 -0.296875 C 1.441406 -0.296875 1.84375 -0.335938 2.09375 -0.421875 C 2.351562 -0.515625 2.523438 -0.679688 2.609375 -0.921875 C 2.691406 -1.171875 2.734375 -1.546875 2.734375 -2.046875 L 2.734375 -9.8125 C 2.734375 -10.320312 2.6875 -10.691406 2.59375 -10.921875 C 2.5 -11.160156 2.328125 -11.328125 2.078125 -11.421875 C 1.828125 -11.515625 1.429688 -11.5625 0.890625 -11.5625 C 0.859375 -11.5625 0.84375 -11.613281 0.84375 -11.71875 C 0.84375 -11.820312 0.859375 -11.875 0.890625 -11.875 L 2.03125 -11.84375 C 2.675781 -11.8125 3.175781 -11.796875 3.53125 -11.796875 C 3.945312 -11.796875 4.476562 -11.8125 5.125 -11.84375 L 6.1875 -11.875 C 6.238281 -11.875 6.265625 -11.820312 6.265625 -11.71875 C 6.265625 -11.613281 6.238281 -11.5625 6.1875 -11.5625 C 5.625 -11.5625 5.21875 -11.515625 4.96875 -11.421875 C 4.71875 -11.328125 4.546875 -11.15625 4.453125 -10.90625 C 4.359375 -10.664062 4.3125 -10.289062 4.3125 -9.78125 Z M 4.3125 -2.15625 "/></g></g></g><g fill="#542e23" fill-opacity="1"><g transform="translate(98.168879, 22.407375)"><g><path d="M 13.546875 -0.296875 C 13.597656 -0.296875 13.625 -0.242188 13.625 -0.140625 C 13.625 -0.046875 13.597656 0 13.546875 0 L 10.875 0 C 10.332031 0 10.019531 -0.0234375 9.9375 -0.078125 C 9.851562 -0.128906 9.59375 -0.492188 9.15625 -1.171875 C 8.726562 -1.859375 8.128906 -2.691406 7.359375 -3.671875 L 5.375 -6.21875 L 4.34375 -5.203125 L 4.34375 -2.046875 C 4.34375 -1.523438 4.382812 -1.144531 4.46875 -0.90625 C 4.5625 -0.675781 4.734375 -0.515625 4.984375 -0.421875 C 5.242188 -0.335938 5.660156 -0.296875 6.234375 -0.296875 C 6.273438 -0.296875 6.296875 -0.242188 6.296875 -0.140625 C 6.296875 -0.046875 6.273438 0 6.234375 0 C 5.765625 0 5.394531 -0.0078125 5.125 -0.03125 L 3.546875 -0.046875 L 2.046875 -0.03125 C 1.765625 -0.0078125 1.378906 0 0.890625 0 C 0.859375 0 0.84375 -0.046875 0.84375 -0.140625 C 0.84375 -0.242188 0.859375 -0.296875 0.890625 -0.296875 C 1.441406 -0.296875 1.847656 -0.335938 2.109375 -0.421875 C 2.378906 -0.515625 2.5625 -0.679688 2.65625 -0.921875 C 2.757812 -1.171875 2.8125 -1.546875 2.8125 -2.046875 L 2.8125 -9.8125 C 2.8125 -10.320312 2.765625 -10.691406 2.671875 -10.921875 C 2.578125 -11.160156 2.398438 -11.328125 2.140625 -11.421875 C 1.878906 -11.515625 1.46875 -11.5625 0.90625 -11.5625 C 0.875 -11.5625 0.859375 -11.613281 0.859375 -11.71875 C 0.859375 -11.820312 0.875 -11.875 0.90625 -11.875 L 2.046875 -11.84375 C 2.691406 -11.8125 3.191406 -11.796875 3.546875 -11.796875 C 3.972656 -11.796875 4.503906 -11.8125 5.140625 -11.84375 L 6.234375 -11.875 C 6.273438 -11.875 6.296875 -11.820312 6.296875 -11.71875 C 6.296875 -11.613281 6.273438 -11.5625 6.234375 -11.5625 C 5.691406 -11.5625 5.285156 -11.507812 5.015625 -11.40625 C 4.742188 -11.3125 4.5625 -11.140625 4.46875 -10.890625 C 4.382812 -10.648438 4.34375 -10.273438 4.34375 -9.765625 L 4.34375 -5.8125 L 8.375 -9.859375 C 9.050781 -10.503906 9.390625 -10.945312 9.390625 -11.1875 C 9.390625 -11.320312 9.296875 -11.414062 9.109375 -11.46875 C 8.921875 -11.53125 8.613281 -11.5625 8.1875 -11.5625 C 8.132812 -11.5625 8.109375 -11.613281 8.109375 -11.71875 C 8.109375 -11.820312 8.132812 -11.875 8.1875 -11.875 L 9.125 -11.84375 C 9.664062 -11.8125 10.222656 -11.796875 10.796875 -11.796875 C 11.472656 -11.796875 12.066406 -11.8125 12.578125 -11.84375 C 12.734375 -11.863281 12.910156 -11.875 13.109375 -11.875 C 13.160156 -11.875 13.1875 -11.820312 13.1875 -11.71875 C 13.1875 -11.613281 13.160156 -11.5625 13.109375 -11.5625 C 12.535156 -11.5625 11.851562 -11.40625 11.0625 -11.09375 C 10.28125 -10.78125 9.5625 -10.300781 8.90625 -9.65625 L 6.46875 -7.25 L 8.21875 -5.015625 C 9.46875 -3.410156 10.335938 -2.320312 10.828125 -1.75 C 11.316406 -1.175781 11.742188 -0.789062 12.109375 -0.59375 C 12.472656 -0.394531 12.953125 -0.296875 13.546875 -0.296875 Z M 13.546875 -0.296875 "/></g></g></g><g fill="#542e23" fill-opacity="1"><g transform="translate(20.835242, 36.427541)"><g><path d="M 7.96875 -0.140625 C 8 -0.140625 8.015625 -0.113281 8.015625 -0.0625 C 8.015625 -0.0195312 8 0 7.96875 0 C 7.820312 0 7.597656 -0.00390625 7.296875 -0.015625 C 6.992188 -0.0351562 6.773438 -0.046875 6.640625 -0.046875 C 6.472656 -0.046875 6.257812 -0.0351562 6 -0.015625 C 5.757812 -0.00390625 5.570312 0 5.4375 0 C 5.40625 0 5.390625 -0.0195312 5.390625 -0.0625 C 5.390625 -0.113281 5.40625 -0.140625 5.4375 -0.140625 C 5.71875 -0.140625 5.921875 -0.164062 6.046875 -0.21875 C 6.179688 -0.269531 6.25 -0.359375 6.25 -0.484375 C 6.25 -0.597656 6.203125 -0.765625 6.109375 -0.984375 L 4.796875 -3.78125 L 2.640625 -3.78125 L 1.65625 -1.453125 C 1.550781 -1.191406 1.5 -0.976562 1.5 -0.8125 C 1.5 -0.363281 1.867188 -0.140625 2.609375 -0.140625 C 2.648438 -0.140625 2.671875 -0.113281 2.671875 -0.0625 C 2.671875 -0.0195312 2.648438 0 2.609375 0 C 2.472656 0 2.273438 -0.00390625 2.015625 -0.015625 C 1.722656 -0.0351562 1.472656 -0.046875 1.265625 -0.046875 C 1.066406 -0.046875 0.835938 -0.0351562 0.578125 -0.015625 C 0.347656 -0.00390625 0.160156 0 0.015625 0 C -0.0234375 0 -0.046875 -0.0195312 -0.046875 -0.0625 C -0.046875 -0.113281 -0.0234375 -0.140625 0.015625 -0.140625 C 0.222656 -0.140625 0.398438 -0.175781 0.546875 -0.25 C 0.703125 -0.332031 0.84375 -0.472656 0.96875 -0.671875 C 1.101562 -0.878906 1.253906 -1.171875 1.421875 -1.546875 L 3.828125 -7.234375 C 3.835938 -7.253906 3.859375 -7.265625 3.890625 -7.265625 C 3.929688 -7.265625 3.957031 -7.253906 3.96875 -7.234375 L 6.65625 -1.5625 C 6.914062 -1 7.132812 -0.617188 7.3125 -0.421875 C 7.5 -0.234375 7.71875 -0.140625 7.96875 -0.140625 Z M 2.734375 -4.015625 L 4.671875 -4.015625 L 3.65625 -6.1875 Z M 2.734375 -4.015625 "/></g></g></g><g fill="#542e23" fill-opacity="1"><g transform="translate(29.799353, 36.427541)"><g><path d="M 3.140625 0.140625 C 2.609375 0.140625 2.132812 0.015625 1.71875 -0.234375 C 1.300781 -0.484375 0.976562 -0.820312 0.75 -1.25 C 0.519531 -1.675781 0.40625 -2.140625 0.40625 -2.640625 C 0.40625 -3.234375 0.554688 -3.742188 0.859375 -4.171875 C 1.171875 -4.597656 1.566406 -4.921875 2.046875 -5.140625 C 2.523438 -5.359375 3.007812 -5.46875 3.5 -5.46875 C 4.03125 -5.46875 4.5 -5.335938 4.90625 -5.078125 C 5.3125 -4.816406 5.625 -4.476562 5.84375 -4.0625 C 6.0625 -3.644531 6.171875 -3.207031 6.171875 -2.75 C 6.171875 -2.238281 6.03125 -1.757812 5.75 -1.3125 C 5.476562 -0.875 5.109375 -0.519531 4.640625 -0.25 C 4.179688 0.0078125 3.679688 0.140625 3.140625 0.140625 Z M 3.4375 -0.109375 C 4.03125 -0.109375 4.503906 -0.316406 4.859375 -0.734375 C 5.210938 -1.148438 5.390625 -1.726562 5.390625 -2.46875 C 5.390625 -2.976562 5.296875 -3.441406 5.109375 -3.859375 C 4.929688 -4.273438 4.671875 -4.609375 4.328125 -4.859375 C 3.992188 -5.109375 3.585938 -5.234375 3.109375 -5.234375 C 2.503906 -5.234375 2.035156 -5.03125 1.703125 -4.625 C 1.367188 -4.21875 1.203125 -3.648438 1.203125 -2.921875 C 1.203125 -2.398438 1.289062 -1.925781 1.46875 -1.5 C 1.644531 -1.070312 1.898438 -0.734375 2.234375 -0.484375 C 2.578125 -0.234375 2.976562 -0.109375 3.4375 -0.109375 Z M 3.4375 -0.109375 "/></g></g></g><g fill="#542e23" fill-opacity="1"><g transform="translate(37.338019, 36.427541)"><g><path d="M 1.703125 -5.1875 C 1.421875 -5.1875 1.195312 -5.144531 1.03125 -5.0625 C 0.863281 -4.988281 0.726562 -4.851562 0.625 -4.65625 C 0.53125 -4.46875 0.457031 -4.203125 0.40625 -3.859375 C 0.40625 -3.835938 0.382812 -3.828125 0.34375 -3.828125 C 0.300781 -3.828125 0.28125 -3.835938 0.28125 -3.859375 C 0.300781 -4.035156 0.328125 -4.316406 0.359375 -4.703125 C 0.390625 -5.085938 0.40625 -5.382812 0.40625 -5.59375 C 0.40625 -5.625 0.425781 -5.640625 0.46875 -5.640625 C 0.519531 -5.640625 0.546875 -5.625 0.546875 -5.59375 C 0.546875 -5.488281 0.601562 -5.421875 0.71875 -5.390625 C 0.832031 -5.367188 0.972656 -5.359375 1.140625 -5.359375 C 1.804688 -5.347656 2.378906 -5.34375 2.859375 -5.34375 L 3.859375 -5.34375 C 3.992188 -5.351562 4.171875 -5.359375 4.390625 -5.359375 C 4.660156 -5.359375 4.859375 -5.375 4.984375 -5.40625 C 5.117188 -5.445312 5.207031 -5.523438 5.25 -5.640625 C 5.257812 -5.660156 5.285156 -5.671875 5.328125 -5.671875 C 5.367188 -5.671875 5.390625 -5.660156 5.390625 -5.640625 C 5.335938 -4.816406 5.3125 -4.222656 5.3125 -3.859375 C 5.3125 -3.835938 5.289062 -3.828125 5.25 -3.828125 C 5.207031 -3.828125 5.1875 -3.835938 5.1875 -3.859375 C 5.175781 -4.203125 5.132812 -4.46875 5.0625 -4.65625 C 5 -4.84375 4.878906 -4.976562 4.703125 -5.0625 C 4.535156 -5.144531 4.304688 -5.1875 4.015625 -5.1875 C 3.691406 -5.1875 3.472656 -5.132812 3.359375 -5.03125 C 3.253906 -4.925781 3.203125 -4.722656 3.203125 -4.421875 L 3.203125 -0.921875 C 3.203125 -0.679688 3.222656 -0.507812 3.265625 -0.40625 C 3.316406 -0.300781 3.40625 -0.226562 3.53125 -0.1875 C 3.664062 -0.15625 3.878906 -0.140625 4.171875 -0.140625 C 4.191406 -0.140625 4.203125 -0.113281 4.203125 -0.0625 C 4.203125 -0.0195312 4.191406 0 4.171875 0 C 3.941406 0 3.757812 -0.00390625 3.625 -0.015625 L 2.0625 -0.015625 C 1.925781 -0.00390625 1.738281 0 1.5 0 C 1.476562 0 1.46875 -0.0195312 1.46875 -0.0625 C 1.46875 -0.113281 1.476562 -0.140625 1.5 -0.140625 C 1.78125 -0.140625 1.988281 -0.15625 2.125 -0.1875 C 2.269531 -0.226562 2.363281 -0.300781 2.40625 -0.40625 C 2.457031 -0.519531 2.484375 -0.691406 2.484375 -0.921875 L 2.484375 -4.4375 C 2.484375 -4.65625 2.46875 -4.816406 2.4375 -4.921875 C 2.40625 -5.023438 2.332031 -5.09375 2.21875 -5.125 C 2.113281 -5.164062 1.941406 -5.1875 1.703125 -5.1875 Z M 1.703125 -5.1875 "/></g></g></g><g fill="#542e23" fill-opacity="1"><g transform="translate(43.953003, 36.427541)"><g><path d="M 4.703125 -1.515625 C 4.703125 -1.535156 4.722656 -1.546875 4.765625 -1.546875 C 4.804688 -1.546875 4.828125 -1.535156 4.828125 -1.515625 C 4.773438 -0.972656 4.75 -0.523438 4.75 -0.171875 C 4.75 -0.109375 4.734375 -0.0625 4.703125 -0.03125 C 4.679688 -0.0078125 4.640625 0 4.578125 0 L 0.40625 0 C 0.382812 0 0.375 -0.0195312 0.375 -0.0625 C 0.375 -0.113281 0.382812 -0.140625 0.40625 -0.140625 C 0.65625 -0.140625 0.835938 -0.15625 0.953125 -0.1875 C 1.066406 -0.226562 1.144531 -0.300781 1.1875 -0.40625 C 1.226562 -0.519531 1.25 -0.691406 1.25 -0.921875 L 1.25 -4.421875 C 1.25 -4.640625 1.226562 -4.800781 1.1875 -4.90625 C 1.144531 -5.019531 1.066406 -5.097656 0.953125 -5.140625 C 0.835938 -5.179688 0.65625 -5.203125 0.40625 -5.203125 C 0.382812 -5.203125 0.375 -5.222656 0.375 -5.265625 C 0.375 -5.316406 0.382812 -5.34375 0.40625 -5.34375 L 4.375 -5.34375 C 4.445312 -5.34375 4.484375 -5.3125 4.484375 -5.25 L 4.5 -4.546875 C 4.5 -4.398438 4.5 -4.210938 4.5 -3.984375 C 4.5 -3.960938 4.476562 -3.953125 4.4375 -3.953125 C 4.394531 -3.953125 4.375 -3.960938 4.375 -3.984375 C 4.34375 -4.335938 4.210938 -4.625 3.984375 -4.84375 C 3.765625 -5.070312 3.488281 -5.1875 3.15625 -5.1875 L 2.84375 -5.1875 C 2.570312 -5.1875 2.375 -5.164062 2.25 -5.125 C 2.132812 -5.082031 2.050781 -5.007812 2 -4.90625 C 1.957031 -4.800781 1.9375 -4.632812 1.9375 -4.40625 L 1.9375 -2.84375 C 2.675781 -2.84375 3.179688 -2.859375 3.453125 -2.890625 C 3.722656 -2.929688 3.875 -2.953125 3.90625 -2.953125 C 3.945312 -2.953125 3.96875 -2.875 3.96875 -2.71875 C 3.96875 -2.539062 3.945312 -2.453125 3.90625 -2.453125 C 3.875 -2.453125 3.722656 -2.472656 3.453125 -2.515625 C 3.179688 -2.554688 2.675781 -2.582031 1.9375 -2.59375 L 1.9375 -0.96875 C 1.9375 -0.75 1.957031 -0.582031 2 -0.46875 C 2.050781 -0.363281 2.140625 -0.289062 2.265625 -0.25 C 2.390625 -0.207031 2.582031 -0.1875 2.84375 -0.1875 L 3.390625 -0.1875 C 3.691406 -0.1875 3.960938 -0.304688 4.203125 -0.546875 C 4.453125 -0.796875 4.617188 -1.117188 4.703125 -1.515625 Z M 4.703125 -1.515625 "/></g></g></g><g fill="#542e23" fill-opacity="1"><g transform="translate(50.203082, 36.427541)"><g><path d="M 6.34375 -0.140625 C 6.375 -0.140625 6.390625 -0.113281 6.390625 -0.0625 C 6.390625 -0.0195312 6.375 0 6.34375 0 C 6.207031 0 5.988281 -0.00390625 5.6875 -0.015625 C 5.375 -0.0351562 5.148438 -0.046875 5.015625 -0.046875 C 4.898438 -0.046875 4.742188 -0.0351562 4.546875 -0.015625 C 4.347656 -0.00390625 4.191406 0 4.078125 0 C 4.046875 0 4.03125 -0.0195312 4.03125 -0.0625 C 4.03125 -0.113281 4.046875 -0.140625 4.078125 -0.140625 C 4.273438 -0.140625 4.421875 -0.160156 4.515625 -0.203125 C 4.617188 -0.253906 4.671875 -0.347656 4.671875 -0.484375 C 4.671875 -0.597656 4.625 -0.753906 4.53125 -0.953125 L 3.75 -2.625 L 2.15625 -2.625 L 1.671875 -1.40625 C 1.546875 -1.113281 1.484375 -0.875 1.484375 -0.6875 C 1.484375 -0.488281 1.550781 -0.347656 1.6875 -0.265625 C 1.820312 -0.179688 2.03125 -0.140625 2.3125 -0.140625 C 2.351562 -0.140625 2.375 -0.113281 2.375 -0.0625 C 2.375 -0.0195312 2.351562 0 2.3125 0 C 2.195312 0 2.039062 -0.00390625 1.84375 -0.015625 C 1.632812 -0.0351562 1.4375 -0.046875 1.25 -0.046875 C 1.0625 -0.046875 0.835938 -0.0351562 0.578125 -0.015625 C 0.347656 -0.00390625 0.164062 0 0.03125 0 C 0 0 -0.015625 -0.0195312 -0.015625 -0.0625 C -0.015625 -0.113281 0 -0.140625 0.03125 -0.140625 C 0.269531 -0.140625 0.457031 -0.171875 0.59375 -0.234375 C 0.726562 -0.296875 0.851562 -0.421875 0.96875 -0.609375 C 1.09375 -0.804688 1.238281 -1.101562 1.40625 -1.5 L 3.046875 -5.515625 C 3.054688 -5.546875 3.078125 -5.5625 3.109375 -5.5625 C 3.140625 -5.5625 3.160156 -5.546875 3.171875 -5.515625 L 5 -1.5625 C 5.195312 -1.132812 5.351562 -0.828125 5.46875 -0.640625 C 5.59375 -0.453125 5.71875 -0.320312 5.84375 -0.25 C 5.96875 -0.175781 6.132812 -0.140625 6.34375 -0.140625 Z M 2.234375 -2.828125 L 3.65625 -2.828125 L 2.890625 -4.46875 Z M 2.234375 -2.828125 "/></g></g></g><g fill="#542e23" fill-opacity="1"><g transform="translate(57.536495, 36.427541)"><g><path d="M 6.1875 -0.140625 C 6.207031 -0.140625 6.21875 -0.113281 6.21875 -0.0625 C 6.21875 -0.0195312 6.207031 0 6.1875 0 L 4.859375 0 C 4.722656 0 4.476562 -0.226562 4.125 -0.6875 C 3.78125 -1.144531 3.367188 -1.773438 2.890625 -2.578125 C 2.742188 -2.546875 2.578125 -2.53125 2.390625 -2.53125 C 2.203125 -2.53125 2.0625 -2.539062 1.96875 -2.5625 L 1.96875 -0.921875 C 1.96875 -0.679688 1.984375 -0.507812 2.015625 -0.40625 C 2.054688 -0.300781 2.132812 -0.226562 2.25 -0.1875 C 2.363281 -0.15625 2.550781 -0.140625 2.8125 -0.140625 C 2.820312 -0.140625 2.828125 -0.113281 2.828125 -0.0625 C 2.828125 -0.0195312 2.820312 0 2.8125 0 C 2.59375 0 2.425781 -0.00390625 2.3125 -0.015625 L 0.921875 -0.015625 C 0.796875 -0.00390625 0.625 0 0.40625 0 C 0.382812 0 0.375 -0.0195312 0.375 -0.0625 C 0.375 -0.113281 0.382812 -0.140625 0.40625 -0.140625 C 0.65625 -0.140625 0.835938 -0.15625 0.953125 -0.1875 C 1.066406 -0.226562 1.144531 -0.300781 1.1875 -0.40625 C 1.238281 -0.519531 1.265625 -0.691406 1.265625 -0.921875 L 1.265625 -4.421875 C 1.265625 -4.640625 1.242188 -4.800781 1.203125 -4.90625 C 1.160156 -5.019531 1.078125 -5.097656 0.953125 -5.140625 C 0.835938 -5.179688 0.65625 -5.203125 0.40625 -5.203125 C 0.394531 -5.203125 0.390625 -5.222656 0.390625 -5.265625 C 0.390625 -5.316406 0.394531 -5.34375 0.40625 -5.34375 L 0.9375 -5.328125 C 1.207031 -5.304688 1.425781 -5.296875 1.59375 -5.296875 C 1.726562 -5.296875 1.851562 -5.300781 1.96875 -5.3125 C 2.09375 -5.320312 2.195312 -5.332031 2.28125 -5.34375 C 2.519531 -5.363281 2.742188 -5.375 2.953125 -5.375 C 3.453125 -5.375 3.828125 -5.273438 4.078125 -5.078125 C 4.335938 -4.890625 4.46875 -4.617188 4.46875 -4.265625 C 4.46875 -3.960938 4.378906 -3.679688 4.203125 -3.421875 C 4.035156 -3.160156 3.800781 -2.953125 3.5 -2.796875 C 3.925781 -2.097656 4.285156 -1.554688 4.578125 -1.171875 C 4.867188 -0.796875 5.140625 -0.53125 5.390625 -0.375 C 5.640625 -0.21875 5.90625 -0.140625 6.1875 -0.140625 Z M 1.96875 -2.765625 C 2.101562 -2.734375 2.269531 -2.71875 2.46875 -2.71875 C 2.945312 -2.71875 3.273438 -2.820312 3.453125 -3.03125 C 3.640625 -3.25 3.734375 -3.554688 3.734375 -3.953125 C 3.734375 -4.796875 3.375 -5.21875 2.65625 -5.21875 C 2.363281 -5.21875 2.175781 -5.15625 2.09375 -5.03125 C 2.007812 -4.90625 1.96875 -4.691406 1.96875 -4.390625 Z M 1.96875 -2.765625 "/></g></g></g><g fill="#542e23" fill-opacity="1"><g transform="translate(64.573411, 36.427541)"><g><path d="M 3.140625 0.140625 C 2.609375 0.140625 2.132812 0.015625 1.71875 -0.234375 C 1.300781 -0.484375 0.976562 -0.820312 0.75 -1.25 C 0.519531 -1.675781 0.40625 -2.140625 0.40625 -2.640625 C 0.40625 -3.234375 0.554688 -3.742188 0.859375 -4.171875 C 1.171875 -4.597656 1.566406 -4.921875 2.046875 -5.140625 C 2.523438 -5.359375 3.007812 -5.46875 3.5 -5.46875 C 4.03125 -5.46875 4.5 -5.335938 4.90625 -5.078125 C 5.3125 -4.816406 5.625 -4.476562 5.84375 -4.0625 C 6.0625 -3.644531 6.171875 -3.207031 6.171875 -2.75 C 6.171875 -2.238281 6.03125 -1.757812 5.75 -1.3125 C 5.476562 -0.875 5.109375 -0.519531 4.640625 -0.25 C 4.179688 0.0078125 3.679688 0.140625 3.140625 0.140625 Z M 3.4375 -0.109375 C 4.03125 -0.109375 4.503906 -0.316406 4.859375 -0.734375 C 5.210938 -1.148438 5.390625 -1.726562 5.390625 -2.46875 C 5.390625 -2.976562 5.296875 -3.441406 5.109375 -3.859375 C 4.929688 -4.273438 4.671875 -4.609375 4.328125 -4.859375 C 3.992188 -5.109375 3.585938 -5.234375 3.109375 -5.234375 C 2.503906 -5.234375 2.035156 -5.03125 1.703125 -4.625 C 1.367188 -4.21875 1.203125 -3.648438 1.203125 -2.921875 C 1.203125 -2.398438 1.289062 -1.925781 1.46875 -1.5 C 1.644531 -1.070312 1.898438 -0.734375 2.234375 -0.484375 C 2.578125 -0.234375 2.976562 -0.109375 3.4375 -0.109375 Z M 3.4375 -0.109375 "/></g></g></g><g fill="#542e23" fill-opacity="1"><g transform="translate(72.112079, 36.427541)"><g><path d="M 6.34375 -0.140625 C 6.375 -0.140625 6.390625 -0.113281 6.390625 -0.0625 C 6.390625 -0.0195312 6.375 0 6.34375 0 C 6.207031 0 5.988281 -0.00390625 5.6875 -0.015625 C 5.375 -0.0351562 5.148438 -0.046875 5.015625 -0.046875 C 4.898438 -0.046875 4.742188 -0.0351562 4.546875 -0.015625 C 4.347656 -0.00390625 4.191406 0 4.078125 0 C 4.046875 0 4.03125 -0.0195312 4.03125 -0.0625 C 4.03125 -0.113281 4.046875 -0.140625 4.078125 -0.140625 C 4.273438 -0.140625 4.421875 -0.160156 4.515625 -0.203125 C 4.617188 -0.253906 4.671875 -0.347656 4.671875 -0.484375 C 4.671875 -0.597656 4.625 -0.753906 4.53125 -0.953125 L 3.75 -2.625 L 2.15625 -2.625 L 1.671875 -1.40625 C 1.546875 -1.113281 1.484375 -0.875 1.484375 -0.6875 C 1.484375 -0.488281 1.550781 -0.347656 1.6875 -0.265625 C 1.820312 -0.179688 2.03125 -0.140625 2.3125 -0.140625 C 2.351562 -0.140625 2.375 -0.113281 2.375 -0.0625 C 2.375 -0.0195312 2.351562 0 2.3125 0 C 2.195312 0 2.039062 -0.00390625 1.84375 -0.015625 C 1.632812 -0.0351562 1.4375 -0.046875 1.25 -0.046875 C 1.0625 -0.046875 0.835938 -0.0351562 0.578125 -0.015625 C 0.347656 -0.00390625 0.164062 0 0.03125 0 C 0 0 -0.015625 -0.0195312 -0.015625 -0.0625 C -0.015625 -0.113281 0 -0.140625 0.03125 -0.140625 C 0.269531 -0.140625 0.457031 -0.171875 0.59375 -0.234375 C 0.726562 -0.296875 0.851562 -0.421875 0.96875 -0.609375 C 1.09375 -0.804688 1.238281 -1.101562 1.40625 -1.5 L 3.046875 -5.515625 C 3.054688 -5.546875 3.078125 -5.5625 3.109375 -5.5625 C 3.140625 -5.5625 3.160156 -5.546875 3.171875 -5.515625 L 5 -1.5625 C 5.195312 -1.132812 5.351562 -0.828125 5.46875 -0.640625 C 5.59375 -0.453125 5.71875 -0.320312 5.84375 -0.25 C 5.96875 -0.175781 6.132812 -0.140625 6.34375 -0.140625 Z M 2.234375 -2.828125 L 3.65625 -2.828125 L 2.890625 -4.46875 Z M 2.234375 -2.828125 "/></g></g></g><g fill="#542e23" fill-opacity="1"><g transform="translate(79.445488, 36.427541)"><g><path d="M 0.734375 1.859375 C 0.722656 1.890625 0.644531 1.882812 0.5 1.84375 C 0.351562 1.800781 0.285156 1.765625 0.296875 1.734375 L 3.171875 -8.328125 C 3.179688 -8.359375 3.253906 -8.351562 3.390625 -8.3125 C 3.535156 -8.269531 3.601562 -8.226562 3.59375 -8.1875 Z M 0.734375 1.859375 "/></g></g></g><g fill="#542e23" fill-opacity="1"><g transform="translate(84.292927, 36.427541)"><g><path d="M 8.03125 -7.125 C 8.050781 -7.125 8.0625 -7.097656 8.0625 -7.046875 C 8.0625 -7.003906 8.050781 -6.984375 8.03125 -6.984375 C 7.707031 -6.984375 7.472656 -6.894531 7.328125 -6.71875 C 7.191406 -6.550781 7.125 -6.269531 7.125 -5.875 L 7.125 0.140625 C 7.125 0.148438 7.101562 0.160156 7.0625 0.171875 C 7.019531 0.179688 6.992188 0.175781 6.984375 0.15625 L 1.734375 -6.1875 L 1.625 -6.3125 L 1.625 -1.25 C 1.625 -0.851562 1.691406 -0.566406 1.828125 -0.390625 C 1.972656 -0.222656 2.203125 -0.140625 2.515625 -0.140625 C 2.546875 -0.140625 2.5625 -0.113281 2.5625 -0.0625 C 2.5625 -0.0195312 2.546875 0 2.515625 0 C 2.328125 0 2.1875 -0.00390625 2.09375 -0.015625 L 0.9375 -0.015625 C 0.832031 -0.00390625 0.675781 0 0.46875 0 C 0.445312 0 0.4375 -0.0195312 0.4375 -0.0625 C 0.4375 -0.113281 0.445312 -0.140625 0.46875 -0.140625 C 0.789062 -0.140625 1.019531 -0.222656 1.15625 -0.390625 C 1.300781 -0.566406 1.375 -0.851562 1.375 -1.25 L 1.375 -6.578125 C 1.070312 -6.847656 0.769531 -6.984375 0.46875 -6.984375 C 0.445312 -6.984375 0.4375 -7.003906 0.4375 -7.046875 C 0.4375 -7.097656 0.445312 -7.125 0.46875 -7.125 L 0.890625 -7.125 C 0.984375 -7.113281 1.109375 -7.109375 1.265625 -7.109375 C 1.429688 -7.109375 1.566406 -7.109375 1.671875 -7.109375 C 1.785156 -7.117188 1.867188 -7.125 1.921875 -7.125 C 1.984375 -7.125 2.023438 -7.109375 2.046875 -7.078125 C 2.078125 -7.054688 2.125 -7 2.1875 -6.90625 C 2.28125 -6.769531 2.375 -6.644531 2.46875 -6.53125 L 6.859375 -1.140625 L 6.859375 -5.875 C 6.859375 -6.269531 6.789062 -6.550781 6.65625 -6.71875 C 6.519531 -6.894531 6.296875 -6.984375 5.984375 -6.984375 C 5.972656 -6.984375 5.96875 -7.003906 5.96875 -7.046875 C 5.96875 -7.097656 5.972656 -7.125 5.984375 -7.125 L 6.4375 -7.125 C 6.664062 -7.101562 6.847656 -7.09375 6.984375 -7.09375 C 7.128906 -7.09375 7.320312 -7.101562 7.5625 -7.125 Z M 8.03125 -7.125 "/></g></g></g><g fill="#542e23" fill-opacity="1"><g transform="translate(93.542122, 36.427541)"><g><path d="M 5.125 -6.84375 C 5.15625 -6.882812 5.164062 -6.910156 5.15625 -6.921875 C 5.15625 -6.929688 5.128906 -6.9375 5.078125 -6.9375 C 3.722656 -6.9375 2.796875 -6.914062 2.296875 -6.875 C 1.804688 -6.832031 1.460938 -6.726562 1.265625 -6.5625 C 1.066406 -6.40625 0.890625 -6.109375 0.734375 -5.671875 C 0.734375 -5.648438 0.71875 -5.640625 0.6875 -5.640625 C 0.664062 -5.640625 0.640625 -5.644531 0.609375 -5.65625 C 0.585938 -5.675781 0.582031 -5.6875 0.59375 -5.6875 L 1.046875 -7.46875 C 1.046875 -7.476562 1.0625 -7.484375 1.09375 -7.484375 C 1.164062 -7.484375 1.195312 -7.472656 1.1875 -7.453125 C 1.175781 -7.421875 1.171875 -7.390625 1.171875 -7.359375 C 1.171875 -7.265625 1.210938 -7.203125 1.296875 -7.171875 C 1.390625 -7.140625 1.570312 -7.125 1.84375 -7.125 L 6 -7.125 C 6.039062 -7.125 6.066406 -7.101562 6.078125 -7.0625 C 6.097656 -7.03125 6.097656 -7.003906 6.078125 -6.984375 L 1.625 -0.3125 L 1.59375 -0.234375 C 1.59375 -0.222656 1.625 -0.21875 1.6875 -0.21875 L 4.59375 -0.21875 C 5.101562 -0.21875 5.488281 -0.320312 5.75 -0.53125 C 6.019531 -0.75 6.195312 -1.085938 6.28125 -1.546875 C 6.289062 -1.554688 6.3125 -1.5625 6.34375 -1.5625 C 6.382812 -1.5625 6.40625 -1.554688 6.40625 -1.546875 L 6.25 -0.09375 C 6.25 -0.0703125 6.238281 -0.046875 6.21875 -0.015625 C 6.195312 0.00390625 6.171875 0.015625 6.140625 0.015625 C 5.015625 0.00390625 3.203125 0 0.703125 0 C 0.660156 0 0.628906 -0.015625 0.609375 -0.046875 C 0.597656 -0.0859375 0.601562 -0.117188 0.625 -0.140625 Z M 5.125 -6.84375 "/></g></g></g></svg>